<?xml version="1.0" encoding="UTF-8" standalone="no"?>
<!-- Created with Inkscape (http://www.inkscape.org/) -->

<svg
   version="1.1"
   id="svg381"
   xml:space="preserve"
   width="682.66669"
   height="682.66669"
   viewBox="0 0 682.66669 682.66669"
   xmlns="http://www.w3.org/2000/svg"
   xmlns:svg="http://www.w3.org/2000/svg"><defs
     id="defs385"><clipPath
       clipPathUnits="userSpaceOnUse"
       id="clipPath395"><path
         d="M 0,512 H 512 V 0 H 0 Z"
         id="path393" /></clipPath></defs><g
     id="g387"
     transform="matrix(1.3333333,0,0,-1.3333333,0,682.66667)"><g
       id="g389"><g
         id="g391"
         clip-path="url(#clipPath395)"><g
           id="g397"
           transform="translate(279.4424,341.5654)"><path
             d="m 0,0 c -9.492,12.701 -27.06,19.055 -41.056,11.603 -31.172,-16.599 -62.789,-27.607 -91.641,-34.905 l 2.165,-5.682 c 1.519,-3.989 -0.651,-8.43 -4.736,-9.665 -16.821,-5.09 -60.24,-16.259 -112.557,-14.514 -1.177,0.039 -2.294,0.285 -3.331,0.686 l -20.786,-126.665 c 176.503,0 248.534,91.076 275.032,142.064 C 9.28,-25.167 8.036,-10.753 0,0 Z"
             style="fill:none;stroke:#000000;stroke-width:15;stroke-linecap:round;stroke-linejoin:round;stroke-miterlimit:10;stroke-dasharray:none;stroke-opacity:1"
             id="path399" /></g><g
           id="g401"
           transform="translate(232.1084,316.4507)"><path
             d="m 0,0 c -8.11,0 -14.686,-6.575 -14.686,-14.686 0,-8.11 6.576,-14.686 14.686,-14.686 8.11,0 14.687,6.576 14.687,14.686 C 14.687,-6.575 8.11,0 0,0 Z"
             style="fill:none;stroke:#000000;stroke-width:15;stroke-linecap:round;stroke-linejoin:round;stroke-miterlimit:10;stroke-dasharray:none;stroke-opacity:1"
             id="path403" /></g><g
           id="g405"
           transform="translate(279.4424,341.5654)"><path
             d="M 0,0 C -9.492,12.701 -27.06,19.055 -41.056,11.603 -51.46,6.063 -61.914,1.154 -72.299,-3.212 l 16.425,-24.657 c 2.408,1.727 5.352,2.754 8.54,2.754 8.11,0 14.686,-6.574 14.686,-14.685 0,-5.275 -2.79,-9.887 -6.966,-12.476 l 16.479,-24.739 C -11.512,-62.646 -3.003,-48.802 3.09,-37.078 9.28,-25.167 8.036,-10.753 0,0 Z"
             style="fill:none;stroke:#000000;stroke-width:15;stroke-linecap:round;stroke-linejoin:round;stroke-miterlimit:10;stroke-dasharray:none;stroke-opacity:1"
             id="path407" /></g><g
           id="g409"
           transform="translate(503.6201,324.6626)"><path
             d="m 0,0 c -68.901,-65.28 -141.904,-99.687 -141.904,-99.687 l 16.911,56.732 -165.648,-59.023 c -43.675,-33.023 -108.956,-60.261 -205.479,-60.261 0,-62.431 14.491,-100.711 24.188,-119.339 3.992,-7.665 13.328,-10.782 21.119,-7.04 24.404,11.719 85.044,35.154 188.17,40.553 104.353,5.463 178.336,26.932 208.695,37.279 10.245,3.491 18.664,10.943 23.41,20.671"
             style="fill:none;stroke:#000000;stroke-width:15;stroke-linecap:round;stroke-linejoin:round;stroke-miterlimit:10;stroke-dasharray:none;stroke-opacity:1"
             id="path411" /></g><g
           id="g413"
           transform="translate(148.9101,312.5811)"><path
             d="m 0,0 -7.873,20.665 c -1.137,2.981 -4.068,4.895 -7.256,4.727 -39.989,-2.113 -73.891,2.102 -88.55,4.382 -4.593,0.714 -9.08,-1.778 -10.895,-6.058 L -122.8,4.32 c -2.324,-5.482 -3.762,-11.299 -4.256,-17.234 l -0.023,-0.283 c -0.483,-5.783 3.985,-10.788 9.786,-10.982 52.317,-1.744 95.736,9.425 112.558,14.514 C -0.651,-8.429 1.52,-3.988 0,0 Z"
             style="fill:none;stroke:#000000;stroke-width:15;stroke-linecap:round;stroke-linejoin:round;stroke-miterlimit:10;stroke-dasharray:none;stroke-opacity:1"
             id="path415" /></g><g
           id="g417"
           transform="translate(452.2695,176.7891)"><path
             d="m 0,0 c 0,-20.788 -16.852,-37.64 -37.64,-37.64 -20.788,0 -37.639,16.852 -37.639,37.64 0,20.788 16.851,37.64 37.639,37.64 C -16.852,37.64 0,20.788 0,0 Z"
             style="fill:none;stroke:#000000;stroke-width:15;stroke-linecap:round;stroke-linejoin:round;stroke-miterlimit:10;stroke-dasharray:none;stroke-opacity:1"
             id="path419" /></g><g
           id="g421"
           transform="translate(428.2675,176.7891)"><path
             d="m 0,0 c 0,-7.532 -6.105,-13.638 -13.638,-13.638 -7.532,0 -13.637,6.106 -13.637,13.638 0,7.532 6.105,13.638 13.637,13.638 C -6.105,13.638 0,7.532 0,0 Z"
             style="fill:none;stroke:#000000;stroke-width:15;stroke-linecap:round;stroke-linejoin:round;stroke-miterlimit:10;stroke-dasharray:none;stroke-opacity:1"
             id="path423" /></g><g
           id="g425"
           transform="translate(217.7685,111.2891)"><path
             d="m 0,0 c -141.555,-15.876 -186.08,-68.204 -186.08,-68.204 3.991,-7.666 13.327,-10.782 21.118,-7.04 24.404,11.719 85.045,35.154 188.171,40.553 93.549,4.898 162.686,22.657 197.871,33.736 C 193.438,-3.921 161.166,8.224 51.575,3.858 45.928,3.633 40.405,3.352 35,3.021"
             style="fill:none;stroke:#000000;stroke-width:15;stroke-linecap:round;stroke-linejoin:round;stroke-miterlimit:10;stroke-dasharray:none;stroke-opacity:1"
             id="path427" /></g><g
           id="g429"
           transform="translate(502.9912,256.0479)"><path
             d="M 0,0 C 2.402,30.846 1.418,56.531 0.569,69.552 0.162,75.811 -1.672,81.875 -4.797,87.312 -24.216,121.096 -105.321,242.243 -258.378,218.406 -376.8,199.964 -432.383,130.36 -456.27,86.079 c 15.379,-2.319 48.37,-6.198 87.06,-4.154 3.188,0.168 6.12,-1.745 7.256,-4.727 l 7.873,-20.665 c 1.519,-3.988 -0.65,-8.429 -4.735,-9.665 -16.822,-5.089 -60.241,-16.258 -112.558,-14.514 -1.177,0.04 -2.294,0.286 -3.331,0.688 l -20.786,-126.666 c 0,-62.431 14.491,-100.711 24.188,-119.338 3.991,-7.666 13.327,-10.783 21.118,-7.041 24.405,11.719 85.045,35.154 188.171,40.553 104.353,5.464 178.336,26.932 208.695,37.279 10.245,3.491 18.664,10.943 23.41,20.671 13.432,27.533 21.313,57.907 25.825,86.5"
             style="fill:none;stroke:#000000;stroke-width:15;stroke-linecap:round;stroke-linejoin:round;stroke-miterlimit:10;stroke-dasharray:none;stroke-opacity:1"
             id="path431" /></g></g></g></g></svg>
